<svg xmlns="http://www.w3.org/2000/svg" viewBox="0 0 26.95 32"><defs><style>.cls-1{fill:#666;}</style></defs><title>User</title><g id="Layer_2" data-name="Layer 2"><g id="Capa_1" data-name="Capa 1"><path class="cls-1" d="M27,32H23.7a10.08,10.08,0,0,0-10.23-9.92A10.09,10.09,0,0,0,3.24,32H0A13.34,13.34,0,0,1,13.47,18.84,13.34,13.34,0,0,1,27,32Z"/><path class="cls-1" d="M13.47,17.78a8.89,8.89,0,1,1,8.9-8.89A8.9,8.9,0,0,1,13.47,17.78Zm0-14.54a5.65,5.65,0,1,0,5.66,5.65A5.66,5.66,0,0,0,13.47,3.24Z"/></g></g></svg>